<svg width="485" height="369" viewBox="0 0 485 369" fill="none" xmlns="http://www.w3.org/2000/svg">
<path d="M234.501 9.17435C195.966 69.8935 185.591 90.1887 181.31 113.312C177.851 132.443 184.439 145.751 204.694 160.39C224.95 175.196 238.783 189.502 238.783 195.99C238.783 198.319 233.513 197.986 219.845 195.158C193.825 189.668 173.405 173.366 169.617 155.233C168.629 150.242 167.147 146.416 166.324 146.915C162.536 149.244 159.242 163.052 160.066 173.865C161.219 188.67 166.653 199.65 178.675 210.629C213.093 242.403 274.683 242.07 307.454 209.631C319.476 197.653 324.581 186.341 324.581 171.536C324.581 160.057 321.452 147.581 318.323 146.583C317.5 146.25 315.853 150.076 314.7 154.9C313.712 159.891 310.583 166.878 307.784 170.704C298.397 183.68 277.647 194.326 256.568 196.822C245.535 198.152 245.041 197.321 250.969 188.005C254.922 181.517 262.332 174.863 281.6 160.39C287.528 155.898 294.939 148.912 298.068 144.753C303.337 137.932 303.832 135.936 304.326 124.458C305.478 102.333 296.092 80.2075 263.485 28.4714C253.933 13.0005 244.876 0.357595 243.394 0.0248871C241.582 -0.307821 238.618 2.68654 234.501 9.17435ZM254.592 26.8079C266.779 46.7703 274.683 63.2393 276.001 72.2225C277.647 83.5345 274.354 90.0223 259.203 105.66C251.628 113.478 245.37 120.631 245.37 121.297C245.37 124.79 241.582 121.962 229.561 109.319C211.446 90.6877 208.811 86.0298 209.635 74.2187C210.293 63.7384 218.033 46.1049 231.043 26.1424C239.936 12.0024 242.077 9.50705 243.888 10.5052C244.547 11.0042 249.487 18.3238 254.592 26.8079ZM289.998 82.5364C298.232 101.334 294.28 113.811 275.177 130.945C268.919 136.601 262.991 141.093 262.167 141.093C261.179 141.093 259.533 139.596 258.545 137.766C257.556 135.936 254.592 133.274 251.957 131.944C249.158 130.446 247.017 128.284 247.017 126.787C247.017 125.456 253.275 117.803 260.85 109.818C276.33 93.5158 279.953 87.527 279.953 78.2112C279.953 66.4001 283.741 68.0636 289.998 82.5364ZM204.2 76.5477C204.365 85.5308 209.799 94.6802 222.315 106.99C228.737 113.312 235.325 120.798 236.642 123.626C239.112 128.117 238.948 128.616 236.148 130.28C234.501 131.112 231.043 133.94 228.408 136.435C225.773 139.097 223.138 141.093 222.48 141.093C220.174 141.093 196.954 116.473 194.155 110.983C189.708 102.665 190.367 94.5139 196.131 82.0373C198.93 76.0486 201.895 71.2243 202.718 71.2243C203.541 71.2243 204.2 73.7197 204.2 76.5477ZM300.538 120.964C300.538 132.942 300.044 134.772 295.598 141.426C292.798 145.252 284.07 153.57 276.001 159.558C259.368 172.368 251.134 180.02 247.346 186.341C245.864 189.003 244.217 190.999 243.723 190.999C243.065 190.999 239.442 187.007 235.654 182.349C231.866 177.524 220.997 167.876 211.446 160.723C189.214 143.921 185.262 137.932 185.262 121.796C185.262 105.161 187.238 103.83 195.143 115.308C198.601 120.465 206.012 128.949 211.611 134.106C219.68 141.592 222.15 144.919 222.974 150.076C225.279 162.386 231.537 167.71 243.888 167.71C252.781 167.71 261.838 159.226 261.838 150.908C261.838 146.25 263.65 143.755 274.354 133.94C281.27 127.452 289.01 118.302 291.81 113.312C298.232 101.667 300.373 103.663 300.538 120.964ZM252.945 138.099C257.721 142.424 258.709 148.912 256.074 155.566C251.793 165.713 240.1 167.543 232.031 159.558C226.267 153.57 225.773 146.749 230.714 140.428C237.136 132.11 245.864 131.278 252.945 138.099ZM168.959 166.379C169.617 168.541 174.558 174.53 179.827 179.687L189.708 189.169L183.286 195.158C179.827 198.319 176.534 200.98 175.875 200.98C171.758 200.98 163.03 180.186 163.03 170.371C163.03 162.22 166.818 159.725 168.959 166.379ZM321.123 170.039C321.123 178.523 317.171 191.997 313.054 197.487L310.089 201.479L303.173 195.158L296.256 188.837L304.326 180.353C308.772 175.695 313.548 169.872 315.03 167.211C319.147 160.723 321.123 161.721 321.123 170.039ZM201.895 193.661C207.329 195.99 211.94 198.152 212.105 198.485C212.928 199.15 205.682 219.612 204.035 221.608C202.553 223.272 191.19 216.784 182.792 209.631L177.028 204.64L184.439 196.988C188.391 192.829 191.849 189.336 192.014 189.336C192.178 189.336 196.625 191.332 201.895 193.661ZM302.185 195.99L308.607 202.644L304.49 206.969C300.044 212.126 286.869 220.943 283.905 220.943C282.094 220.943 275.013 204.474 275.013 199.982C275.013 197.82 289.504 189.835 293.951 189.502C294.939 189.336 298.562 192.33 302.185 195.99ZM276.33 209.797C278.306 215.287 279.953 220.444 279.953 221.608C279.953 223.937 266.614 228.429 254.592 230.092C248.664 230.924 246.194 230.591 245.205 228.928C243.065 225.601 243.394 205.306 245.699 202.977C246.852 201.812 250.64 200.814 254.428 200.814C258.05 200.648 263.32 199.982 265.955 199.483C268.755 198.818 271.39 198.651 271.884 199.15C272.378 199.65 274.354 204.474 276.33 209.797ZM240.1 201.812C241.418 202.311 242.077 206.803 242.077 216.784C242.077 229.261 241.747 230.924 239.112 230.924C234.666 230.924 217.375 227.763 211.117 225.767C205.188 223.771 205.188 224.27 211.117 207.967L214.41 199.15L226.103 200.149C232.69 200.814 238.948 201.479 240.1 201.812Z" fill="url(#paint0_linear_255_3714)"/>
<path d="M0 222.108C0 227.265 16.7974 241.572 32.1126 249.557C46.9338 257.209 67.6835 264.529 111.159 277.504C140.966 286.321 153.976 291.145 171.926 300.461C195.311 312.439 212.767 331.237 218.201 349.702C219.354 353.362 221.165 356.689 222.153 357.021C225.282 358.02 222.812 337.392 218.036 322.586C206.838 288.317 182.465 270.185 133.391 259.538C124.827 257.542 103.254 254.048 85.6336 251.719C68.0128 249.39 48.7453 246.23 42.8168 244.899C26.8428 241.239 12.0216 233.42 6.91656 225.768C2.14084 218.781 0 217.783 0 222.108ZM87.4451 255.878C148.377 264.03 174.726 272.846 194.652 292.143C200.251 297.467 206.179 305.452 209.144 311.274C213.425 320.091 215.401 327.41 213.425 327.41C213.096 327.41 208.32 322.919 202.886 317.595C184.277 299.13 163.198 288.983 111.159 273.345C66.6954 260.037 54.3444 255.878 54.3444 254.048C54.3444 251.886 59.1201 252.218 87.4451 255.878Z" fill="url(#paint1_linear_255_3714)"/>
<path d="M475.759 225.437C467.69 237.913 450.728 244.068 407.746 250.057C346.321 258.707 328.371 262.866 307.127 273.513C278.637 287.653 262.499 311.941 259.205 345.544C258.546 353.695 258.711 357.355 260.028 357.355C261.016 357.355 262.334 355.359 262.828 352.864C266.122 338.89 280.943 319.427 296.093 308.78C312.397 297.301 338.087 286.988 381.892 274.178C429.813 260.205 445.458 253.883 463.573 241.739C472.301 235.917 484.158 223.939 484.158 220.945C484.158 217.119 479.547 219.614 475.759 225.437ZM428.167 254.049C428.167 255.879 415.486 260.205 369.541 274.012C319.478 289.15 296.752 300.296 278.473 318.761C273.367 323.918 269.086 327.079 268.098 326.081C265.298 323.253 277.978 301.46 288.353 291.812C306.139 275.01 329.359 266.027 372.34 259.373C415.486 252.552 428.167 251.388 428.167 254.049Z" fill="url(#paint2_linear_255_3714)"/>
<path d="M37.875 280.499C37.875 282.994 65.2119 316.265 76.7395 328.076C96.3364 347.872 115.439 360.515 134.872 366.338C149.693 370.829 182.793 369.166 182.793 364.009C182.793 361.846 181.97 362.013 170.772 364.175C163.855 365.672 158.256 365.672 148.705 364.175C124.661 360.682 110.17 350.035 99.63 328.742C94.5249 318.261 90.2432 302.458 92.3841 302.458C96.3364 302.624 127.296 308.946 127.955 309.777C128.614 310.443 127.79 313.104 126.143 315.932C122.026 322.919 122.191 336.394 126.308 342.05C133.719 352.031 143.929 356.024 155.951 353.695C163.691 352.031 172.254 343.714 173.901 336.061C175.547 328.243 176.041 327.411 178.676 327.411C181.311 327.411 193.004 338.39 199.591 347.373C201.896 350.534 204.366 352.697 205.025 352.031C206.837 350.201 200.085 340.22 191.192 331.902C175.383 316.931 155.127 309.611 105.558 300.794C72.6225 294.972 55.1664 289.815 46.7677 283.327C41.3333 279.168 37.875 278.004 37.875 280.499ZM71.1404 297.8L85.6322 301.293L89.0905 313.104C91.0666 319.592 94.3602 328.409 96.5011 332.734C101.936 343.714 98.8066 343.215 85.6322 331.237C74.7633 321.256 54.343 297.966 54.343 295.471C54.343 293.641 54.6724 293.641 71.1404 297.8ZM157.103 316.764C169.125 320.757 171.266 322.587 171.266 328.742C171.266 340.553 161.056 350.7 149.034 350.7C129.272 350.7 119.886 328.908 133.06 313.604C136.024 310.11 139.647 310.609 157.103 316.764Z" fill="url(#paint3_linear_255_3714)"/>
<path d="M144.258 323.418C139.976 327.577 140.964 333.899 146.069 335.063C154.304 337.226 159.244 330.073 153.809 323.917C150.351 320.091 147.716 319.925 144.258 323.418ZM151.504 329.074C151.504 332.568 147.552 333.732 145.74 330.738C144.423 328.409 146.234 325.747 149.198 325.747C150.516 325.747 151.504 327.245 151.504 329.074Z" fill="url(#paint4_linear_255_3714)"/>
<path d="M435.41 283.494C427.341 289.815 410.05 294.972 377.114 300.795C329.192 309.279 309.43 316.099 292.962 330.406C286.21 336.395 276.659 348.206 276.659 351.034C276.659 354.361 280.117 351.699 285.881 343.881C289.339 339.223 295.103 333.068 298.726 330.406L305.478 325.582L307.454 333.4C311.077 348.039 324.745 357.022 338.908 353.862C355.54 350.202 363.774 332.735 356.199 316.598C354.717 313.438 353.894 310.277 354.552 309.778C355.87 308.281 389.135 302.625 390.123 303.457C391.605 304.787 386.994 319.926 381.889 330.572C372.338 350.202 357.517 360.682 333.803 364.176C324.087 365.673 318.652 365.673 311.077 364.176C305.478 363.011 300.537 362.512 300.043 363.011C294.938 368.168 330.674 370.996 346.648 366.671C363.28 362.179 383.207 349.869 399.51 334.066C414.825 319.094 444.632 283.494 444.632 280.167C444.632 278.004 440.186 279.502 435.41 283.494ZM428.164 295.472C428.164 297.967 407.744 321.256 396.875 331.238C385.018 342.051 380.407 343.714 384.524 335.729C386.006 332.901 389.3 324.084 391.77 316.099L396.546 301.627L409.391 298.133C424.212 294.141 428.164 293.475 428.164 295.472ZM350.6 315.101C361.634 329.408 351.588 350.701 333.638 350.701C320.628 350.701 310.583 340.221 311.571 327.744C312.065 322.088 312.724 321.423 320.299 318.595C329.192 315.101 342.201 311.109 345.33 310.942C346.318 310.776 348.789 312.772 350.6 315.101Z" fill="url(#paint5_linear_255_3714)"/>
<path d="M328.865 323.751C323.925 329.24 326.395 335.728 333.476 335.728C340.393 335.728 343.192 328.409 338.252 323.418C334.958 319.925 332.159 320.091 328.865 323.751ZM336.44 328.242C337.593 331.07 335.123 333.066 331.829 331.736C329.03 330.738 330.347 325.747 333.476 325.747C334.629 325.747 335.946 326.911 336.44 328.242Z" fill="url(#paint6_linear_255_3714)"/>
<defs>
<linearGradient id="paint0_linear_255_3714" x1="323.925" y1="132.34" x2="160.527" y2="131.47" gradientUnits="userSpaceOnUse">
<stop offset="1" stop-color="#FFD49C"/>
</linearGradient>
<linearGradient id="paint1_linear_255_3714" x1="222.657" y1="297.232" x2="0.826052" y2="294.501" gradientUnits="userSpaceOnUse">
<stop offset="1" stop-color="#FFD49C"/>
</linearGradient>
<linearGradient id="paint2_linear_255_3714" x1="483.26" y1="297.227" x2="259.661" y2="294.466" gradientUnits="userSpaceOnUse">
<stop offset="1" stop-color="#FFD49C"/>
</linearGradient>
<linearGradient id="paint3_linear_255_3714" x1="204.654" y1="329.907" x2="38.5017" y2="327.559" gradientUnits="userSpaceOnUse">
<stop offset="1" stop-color="#FFD49C"/>
</linearGradient>
<linearGradient id="paint4_linear_255_3714" x1="156.035" y1="329.133" x2="141.618" y2="329.024" gradientUnits="userSpaceOnUse">
<stop offset="1" stop-color="#FFD49C"/>
</linearGradient>
<linearGradient id="paint5_linear_255_3714" x1="443.963" y1="329.813" x2="277.288" y2="327.446" gradientUnits="userSpaceOnUse">
<stop offset="1" stop-color="#FFD49C"/>
</linearGradient>
<linearGradient id="paint6_linear_255_3714" x1="340.692" y1="329.278" x2="326.332" y2="329.172" gradientUnits="userSpaceOnUse">
<stop offset="1" stop-color="#FFD49C"/>
</linearGradient>
</defs>
</svg>
